<svg height="2048" width="2048" xmlns="http://www.w3.org/2000/svg" shape-rendering="geometricPrecision" text-rendering="geometricPrecision" image-rendering="optimizeQuality" fill-rule="evenodd" clip-rule="evenodd"><defs><style>.fil2{fill:#eaeaea}.fil3{fill:#fefefe}</style></defs><g id="Layer_x0020_1"><g id="_337848256"><path id="_337847992" fill="#e55638" d="M470.072 1638.46L346.817 255.999H1701.18L1577.79 1638.24 1023.17 1792z"/><path id="_337847968" fill="#f26b3a" d="M1024 1674.47l448.16-124.25 105.45-1181.183H1024z"/><path class="fil2" id="_337848328" d="M1024 881.773H799.639l-15.497-173.627H1024V538.593H598.843l4.057 45.487 41.673 467.24H1024z"/><path class="fil2" id="_337847872" d="M1024 1322.12l-.74.19-188.833-50.99-12.076-135.22H652.147l23.757 266.22 347.316 96.42.78-.22z"/><path class="fil3" id="_337847848" d="M1023.41 881.773v169.547h208.79l-19.68 219.9-189.11 51.04v176.4l347.59-96.34 2.55-28.64 39.85-446.379 4.13-45.528h-45.69z"/><path class="fil3" id="_337847752" d="M1023.41 538.593v169.553h409.55l3.4-38.112 7.73-85.954 4.05-45.487z"/></g></g><path fill="none" d="M0 0h2048v2048H0z"/></svg>